<?xml version="1.0" encoding="utf-8"?>

<!DOCTYPE svg PUBLIC "-//W3C//DTD SVG 1.1//EN" "http://www.w3.org/Graphics/SVG/1.1/DTD/svg11.dtd">
<svg version="1.1" id="Layer_1" xmlns="http://www.w3.org/2000/svg" xmlns:xlink="http://www.w3.org/1999/xlink" x="0px" y="0px"
	 viewBox="0 0 2620.234 571.122" enable-background="new 0 0 2620.234 571.122" xml:space="preserve">
<path d="M1107.642,424.629c-96.775-50.076-121.274-68.52-236.516-130.439c-1.833,11.153-1.495,27.66,3.044,38.573
	c11.181,26.76,36.975,14.002,64.713,32.482c12.594,8.4,7.722,26.901-12.942,26.901c-12.077,0-41.028-9.739-57.608-45.171
	c-4.901-10.485-7.359-22.84-7.359-37.052c0-9.07,2.03-11.246,2.03-20.301c-48.363-24.181-66.743-33.358-94.912-45.68
	c-66.939,18.141-135.097,84.495-77.908,155.818C770.981,500.522,996.886,536.011,1107.642,424.629z M1951.62,343.929
	c0-38.059-38.813-83.546-99.479-99.987c-28.173,12.324-46.558,21.503-94.912,45.68c0,3.386,0.334,6.771,1.016,10.149
	c6.406,32.245-12.808,73.577-45.173,87.553c-35.45,15.329-47.659-11.45-31.722-22.079c24.063-16.032,44.545-8.769,57.608-21.824
	c6.294-6.294,9.428-14.835,10.405-23.601c0.963-8.671,1.145-17.109-0.255-25.631c-114.731,61.644-139.872,80.431-236.516,130.439
	c4.354,4.378,6.555,5.562,11.166,10.151C1677.187,563.384,1951.62,457.177,1951.62,343.929z M883.306,246.48
	c-33.683-8.412-63.704-12.313-98.971-6.091c27.579,12.782,54.439,25.865,81.207,39.589
	C868.928,268.813,874.853,257.645,883.306,246.48z M1754.692,279.978c26.721-13.7,53.577-26.784,81.207-39.589
	c-35.071-6.188-64.701-2.467-98.971,6.091C1745.381,257.645,1751.306,268.813,1754.692,279.978z M1115.256,417.524
	c6.331-6.331,12.145-12.512,17.256-18.272c-1.688-1.688-3.163-2.768-6.598-5.075c-65.055-51.561-146.974-118.4-234.488-145.667
	c-8.794,12.182-14.719,24.03-17.763,35.529C986.733,343.731,1011.267,363.324,1115.256,417.524z M1746.571,284.039
	c-3.044-11.499-8.969-23.347-17.763-35.529c-85.967,26.785-165.678,91.13-234.488,145.667c-3.593,2.413-4.986,3.462-6.598,5.075
	c5.109,5.757,10.921,11.937,17.256,18.272C1608.934,363.341,1633.523,343.719,1746.571,284.039z M898.025,240.389
	c88.832,28.697,168.523,96.643,241.086,150.744c107.991-133.484-18.51-233.494-150.488-201.498
	C950.992,198.757,918.642,217.899,898.025,240.389z M1481.124,391.133c72.643-54.16,152.214-122.034,241.086-150.744
	c-11.167-12.182-25.378-23.006-42.634-32.482C1539.954,133.446,1357.885,238.801,1481.124,391.133z M1122.87,421.078
	c51.904,26.921,84.32,40.357,110.138,49.739c-28.429-15.393-44.059-27.742-94.405-66.995
	C1133.529,409.91,1128.286,415.669,1122.87,421.078z M1481.631,403.821c-48.972,38.183-65.545,51.37-94.405,66.995
	c25.849-9.393,58.244-22.823,110.138-49.739C1491.948,415.669,1486.705,409.91,1481.631,403.821z M1310.117,504.073
	c-67.893-13.004-133.795-39.259-194.861-75.89c-140.799,125.325-325.647,119.468-412.13,69.281
	c-36.576-21.223-62.234-53.678-62.936-98.212c0-70.509,50.361-137.947,116.228-160.384
	c-69.772-28.996-141.889-53.323-216.722-62.683C225.499,136.975-56.35,365.516,69.706,507.869
	c15.567,13.878,32.736,23.601,51.516,29.184c111.752,33.216,160.658-36.824,232.711-95.674c9.818-8.121,18.867-13.956,27.154-17.51
	c7.835-3.357,18.891-6.867,27.154-4.821l0.507-0.509c0.755,0.38,6.432,3.217,7.105,3.553l-1.014,1.016
	c5.662,6.775,0.995,18.94-3.553,26.899c-12.285,21.502-61.396,60.075-122.573,81.716c-60.733,21.525-141.929,33.069-197.69,3.553
	c-1.919-1.275-28.931-15.079-28.931-20.81c-37.436-43.284-40.919-95.516-15.989-146.174
	c35.588-72.278,137.606-159.727,309.099-193.884c146.607-29.166,280.399,0.451,415.934,60.399
	c39.535-10.476,80.002-7.845,118.766,3.552c58.578-68.3,190.111-88.169,260.882-27.661c60.499,51.738,44.312,123.47-5.584,185.51
	c46.106,36.661,93.799,73.143,149.727,90.851c-106.375-63.823-114.014-230.946-42.127-335.491
	c17.887-44.342,15.05-91.544-7.105-133.485c28.12,20.963,50.845,46.718,59.89,81.209c1.476-0.908,2.986-1.783,4.53-2.625
	c1.543,0.842,3.053,1.717,4.53,2.625c9.01-34.358,31.621-60.135,59.89-81.209c-22.151,41.932-24.995,89.135-7.105,133.485
	c71.843,104.482,64.223,271.683-42.127,335.491c55.906-17.701,103.596-54.171,149.727-90.851
	c-77.154-95.933-46.895-180.714,41.873-211.901c74.601-26.213,168.646,1.843,213.425,54.053
	c38.757-11.395,79.225-14.029,118.766-3.552c97.656-43.194,195.75-71.565,299.452-71.565c298.356,0,528.446,213.804,409.593,351.224
	c0,4.514-18.592,15.156-22.586,17.256c-5.372,2.831-19.028,11.759-44.664,17.003c-32.9,6.743-68.66,5.027-101.51-1.27
	c-102.552-19.6-167.374-74.593-180.433-97.449c-4.548-7.959-9.195-20.148-3.553-26.899l-1.014-1.016
	c0.673-0.336,6.35-3.173,7.105-3.553l0.507,0.509c1.348-0.334,3.378-0.509,6.091-0.509c16.484,0,35.493,12.315,48.218,22.84
	c72.24,59.004,120.902,128.907,232.711,95.674c18.78-5.584,35.948-15.306,51.515-29.184
	c113.235-127.874-104.917-335.998-399.948-335.998c-101.584,0-192.369,27.768-286.763,66.997
	c92.113,31.378,146.172,148.778,98.716,217.483c-59.46,86.091-225.683,90.49-334.474,47.71
	c-45.171-17.763-86.204-43.055-123.08-75.879C1444.322,464.568,1378.445,490.986,1310.117,504.073z M1310.117,194.869
	c-81.932,84.21-93.721,228.735,0,285.64C1404.454,423.23,1391.387,278.4,1310.117,194.869z"/>
</svg>
