<?xml version="1.0" encoding="utf-8"?>

<!DOCTYPE svg PUBLIC "-//W3C//DTD SVG 1.1//EN" "http://www.w3.org/Graphics/SVG/1.1/DTD/svg11.dtd">
<svg version="1.1" id="Layer_1" xmlns="http://www.w3.org/2000/svg" xmlns:xlink="http://www.w3.org/1999/xlink" x="0px" y="0px"
	 viewBox="0 0 2657.904 662.107" enable-background="new 0 0 2657.904 662.107" xml:space="preserve">
<path d="M1328.952,342.448c-52.541-5.005-138.823,3.265-171.731,18.952c-119.937,57.177-67.444,233.992,53.349,179.695
	c58.981-26.512,42.38-119.388-18.643-104.306c-12.238,3.025-12.379,3.266-13.399,22.816l-1.031,19.759h11.6
	c7.98,0,14.16-2.725,19.804-8.734c12.333-13.128,21.95-10.15,23.225,7.193c1.514,20.603-6.805,26.72-36.796,27.052
	c-55.517,0.614-68.682-68.712-17.405-91.65c46.562-20.826,89.217,7.783,94.423,63.331
	c10.183,108.673-146.249,146.449-197.598,47.713c-26.523-51.002-9.796-132.83,33.897-165.819
	c22.4-16.912,20.689-18.099-21.517-14.935c-31.057,2.328-31.771,2.579-35.507,12.473c-10.527,27.889-76.681,26.616-85.492-1.644
	c-1.248-4.003-3.994-8.414-6.101-9.803c-7.296-4.806-89.475-2.9-107.233,2.487c-9.278,2.814-20.831,5.134-25.673,5.154
	c-20.948,0.088-65.317,32.438-77.241,56.318c-40.851,81.801,16.638,168.51,97.261,146.699
	c68.252-18.464,71.685-128.714,3.915-125.645c-22.971,1.04-23.173,1.11-29.098,10.153c-11.834,18.062,4.733,37.995,25.138,30.245
	c5.12-1.924,5.91-21.511,0.893-21.511c-1.89,0-3.436-2.32-3.436-5.154c0-6.085,8.566-6.603,23.442-1.417
	c34.236,11.935,0.758,66.857-36.494,59.867c-51.579-9.676-51.672-80.87-0.126-97.876c73.3-24.182,128.892,70.963,83.482,142.875
	c-24.357,38.569-91.444,55.239-137.311,34.119l-0.1,0.018c-87.214-40.136-96.285-167.383-15.841-221.985
	c23.779-16.151,22.817-16.941-20.377-16.941c-50.967,0-97.01,23.119-104.172,52.304c-4.436,18.079-25.026,20.83-32.536,4.347
	c-2.132-4.678-11.258-13.071-20.28-18.651c-9.023-5.58-18.351-13.32-20.729-17.2c-6.005-9.798-9.107-8.857-13.827,4.196
	c-12.676,35.054-78.949,34.238-100.814-1.242c-12.462-20.223-11.603-20.138-214.357-21.13l-185.561-0.893v-24.054l185.561-0.908
	c202.756-0.992,201.897-0.907,214.357-21.13c21.863-35.48,88.138-36.298,100.814-1.242c4.72,13.053,7.822,13.994,13.827,4.196
	c2.378-3.881,11.706-11.621,20.729-17.2s18.148-13.972,20.28-18.651c7.51-16.483,28.1-13.731,32.536,4.347
	c7.182,29.174,53.228,52.301,104.189,52.301c43.212,0,44.177-0.803,20.395-16.939C641.428,222.836,734.955,28.148,868.973,80.971
	c102.684,40.473,66.31,212.725-37.676,178.42c-51.545-17.005-51.452-88.2,0.126-97.876c37.25-6.988,70.729,47.933,36.494,59.867
	c-14.879,5.189-23.436,4.673-23.436-1.409c0-2.835,1.546-5.154,3.436-5.154c5.001,0,4.219-19.585-0.859-21.514
	c-20.404-7.751-36.971,12.183-25.138,30.245c5.925,9.043,6.127,9.113,29.098,10.153c67.771,3.068,64.335-107.182-3.915-125.645
	c-80.623-21.811-138.109,64.902-97.261,146.699c11.925,23.879,56.294,56.228,77.241,56.318c4.842,0.021,16.395,2.34,25.673,5.154
	c17.759,5.387,99.938,7.294,107.233,2.487c2.108-1.389,4.853-5.8,6.101-9.803c8.81-28.261,74.963-29.533,85.492-1.644
	c3.734,9.894,4.449,10.145,35.507,12.473c42.208,3.164,43.916,1.977,21.517-14.935c-89.653-67.695-46.115-222.845,62.335-222.089
	c102.357,0.695,146.366,137.466,54.613,169.716c-58.83,20.677-106.288-46.981-61.39-87.512c21.772-19.653,69.819-5.147,67.936,20.51
	c-1.275,17.343-10.892,20.321-23.225,7.193c-5.636-6.014-11.821-8.728-19.793-8.728h-11.6l1.031,19.759
	c1.02,19.55,1.161,19.791,13.399,22.816c61.022,15.082,77.623-77.795,18.643-104.306
	c-120.793-54.297-173.286,122.518-53.349,179.695c32.911,15.689,119.203,23.958,171.743,18.951
	c52.54,5.007,138.832-3.262,171.743-18.951c119.938-57.177,67.444-233.992-53.349-179.695
	c-58.979,26.511-42.379,119.387,18.643,104.306c12.238-3.025,12.379-3.266,13.399-22.816l1.031-19.759h-11.6
	c-7.972,0-14.158,2.715-19.793,8.728c-12.333,13.128-21.95,10.149-23.225-7.193c-1.883-25.657,46.163-40.163,67.936-20.51
	c44.899,40.531-2.56,108.189-61.39,87.512c-91.753-32.25-47.744-169.021,54.613-169.716
	c108.45-0.756,151.988,154.393,62.335,222.089c-22.399,16.912-20.691,18.099,21.517,14.935c31.058-2.328,31.773-2.58,35.507-12.473
	c10.529-27.889,76.682-26.616,85.492,1.644c1.248,4.003,3.994,8.415,6.101,9.803c7.295,4.806,89.474,2.9,107.233-2.487
	c9.278-2.815,20.831-5.134,25.673-5.154c20.948-0.089,65.316-32.438,77.241-56.318c40.847-81.798-16.639-168.511-97.261-146.699
	c-68.25,18.463-71.686,128.713-3.915,125.645c22.971-1.04,23.173-1.11,29.098-10.153c11.834-18.062-4.733-37.995-25.138-30.245
	c-5.078,1.929-5.86,21.514-0.859,21.514c1.89,0,3.436,2.32,3.436,5.154c0,6.082-8.556,6.598-23.436,1.409
	c-34.236-11.934-0.756-66.855,36.494-59.867c51.578,9.677,51.671,80.872,0.126,97.876
	c-103.986,34.305-140.359-137.947-37.676-178.42c134.018-52.823,227.545,141.865,107.333,223.429
	c-23.782,16.136-22.817,16.939,20.395,16.939c50.96,0,97.007-23.126,104.189-52.301c4.436-18.078,25.026-20.83,32.536-4.347
	c2.132,4.678,11.258,13.071,20.281,18.651c9.023,5.579,18.351,13.32,20.729,17.2c6.005,9.798,9.107,8.856,13.827-4.196
	c12.677-35.056,78.951-34.238,100.814,1.242c12.46,20.223,11.601,20.138,214.357,21.13l185.561,0.908v24.054l-185.561,0.893
	c-202.754,0.992-201.895,0.907-214.357,21.13c-21.865,35.48-88.138,36.296-100.814,1.242c-4.72-13.053-7.822-13.994-13.827-4.196
	c-2.379,3.881-11.706,11.621-20.729,17.2c-9.023,5.58-18.149,13.972-20.281,18.651c-7.51,16.483-28.1,13.731-32.536-4.347
	c-7.161-29.185-53.204-52.304-104.172-52.304c-43.194,0-44.156,0.79-20.377,16.941c80.444,54.603,71.372,181.849-15.841,221.985
	l-0.1-0.018c-45.868,21.12-112.954,4.45-137.311-34.119c-45.411-71.912,10.182-167.056,83.482-142.875
	c51.545,17.006,51.453,88.2-0.126,97.876c-37.251,6.989-70.729-47.933-36.494-59.867c14.876-5.186,23.442-4.668,23.442,1.417
	c0,2.835-1.546,5.154-3.436,5.154c-5.017,0-4.227,19.587,0.893,21.511c20.405,7.751,36.972-12.183,25.138-30.245
	c-5.925-9.043-6.127-9.114-29.098-10.153c-67.77-3.069-64.337,107.181,3.915,125.645c80.624,21.81,138.112-64.898,97.261-146.699
	c-11.924-23.879-56.294-56.229-77.241-56.318c-4.842-0.021-16.395-2.34-25.673-5.154c-17.759-5.387-99.938-7.294-107.233-2.487
	c-2.108,1.389-4.853,5.8-6.101,9.803c-8.811,28.261-74.965,29.533-85.492,1.644c-3.736-9.894-4.45-10.145-35.507-12.473
	c-42.207-3.164-43.917-1.977-21.518,14.935c43.693,32.989,60.42,114.817,33.897,165.819
	c-51.349,98.735-207.781,60.96-197.598-47.713c5.206-55.549,47.861-84.157,94.423-63.331c51.277,22.937,38.112,92.264-17.405,91.65
	c-29.991-0.332-38.31-6.448-36.796-27.052c1.275-17.343,10.892-20.321,23.225-7.193c5.645,6.009,11.824,8.734,19.805,8.734h11.6
	l-1.031-19.759c-1.02-19.55-1.161-19.791-13.399-22.816c-61.023-15.082-77.624,77.794-18.643,104.306
	c120.793,54.297,173.286-122.518,53.349-179.695C1467.775,345.712,1381.493,337.443,1328.952,342.448z M634.49,353.143
	c6.797-7.087,15.451-14.819,19.231-17.182c6.873-4.295,6.873-4.295,0-8.591c-3.78-2.362-12.434-10.094-19.231-17.182
	c-20.755-21.649-54.637-8.316-54.637,21.477c0,29.808,33.888,43.126,54.651,21.477H634.49z M2023.401,353.143
	c20.763,21.649,54.651,8.331,54.651-21.477c0-29.793-33.882-43.126-54.637-21.477c-6.797,7.087-15.451,14.819-19.231,17.182
	c-6.873,4.295-6.873,4.295,0,8.591c3.78,2.362,12.434,10.094,19.231,17.182H2023.401z M529.201,351.487
	c8.994-4.25,17.217-10.449,18.272-13.775c7.544-23.77-41.229-42.789-66.176-25.806c-35.903,24.441,6.246,59.266,47.902,39.579
	L529.201,351.487z M2128.705,351.486c41.656,19.687,83.805-15.139,47.902-39.579c-24.948-16.983-73.72,2.036-66.176,25.806
	c1.056,3.326,9.278,9.524,18.272,13.775L2128.705,351.486z M1027.809,337.674c8.664-13.831-13.7-25.347-31.119-16.024
	c-9.538,5.104-10.334,12.624-2.019,19.066C1002.816,347.028,1023.117,345.164,1027.809,337.674L1027.809,337.674z M1630.095,337.674
	c4.691,7.49,24.993,9.354,33.138,3.042c8.315-6.442,7.518-13.962-2.019-19.066C1643.795,312.328,1621.432,323.843,1630.095,337.674
	L1630.095,337.674z"/>
</svg>
