<?xml version="1.0" encoding="utf-8"?>

<!DOCTYPE svg PUBLIC "-//W3C//DTD SVG 1.1//EN" "http://www.w3.org/Graphics/SVG/1.1/DTD/svg11.dtd">
<svg version="1.1" id="Layer_1" xmlns="http://www.w3.org/2000/svg" xmlns:xlink="http://www.w3.org/1999/xlink" x="0px" y="0px"
	 viewBox="0 0 2580.052 329.803" enable-background="new 0 0 2580.052 329.803" xml:space="preserve">
<g>
	<g>
		<path d="M2569.7,237.711c-1.571,38.68-27.357,60.867-61.979,74.349c-34.556,13.417-74.807,2.552-92.87-19.634
			c-18.522-22.711-17.082-46.468,0.982-63.026c12.239-11.126,26.375,0,25.852,10.34c-0.72,14.268-29.975,10.865-8.247,34.098
			c14.66,15.708,44.897,13.94,60.866-4.123c16.035-18.064,24.739-50.656,3.142-68.196c-62.503-50.591-138.88,27.423-198.241,26.899
			c-59.427-0.524-91.234-61.456-167.285-58.903c-138.095,4.712-227.169,128.081-386.207,129.063
			c-75.396,0.523-189.013-104.913-245.756-115.646c-133.71-25.263-207.011,66.102-210.611,64.074
			c-3.052-1.776,58.818-72.566,157.929-82.103c-99.111-9.538-160.981-80.328-157.929-82.103c3.6-2.029,76.901,89.336,210.611,64.074
			c56.743-10.734,170.361-116.17,245.756-115.646c159.038,0.982,248.112,124.351,386.207,129.063
			c76.05,2.553,107.858-58.379,167.285-58.903c59.361-0.524,135.739,77.49,198.241,26.899c21.598-17.54,12.893-50.133-3.142-68.196
			c-15.969-18.064-46.206-19.831-60.866-4.123c-21.729,23.234,7.527,19.83,8.247,34.098c0.523,10.34-13.613,21.467-25.852,10.34
			c-18.064-16.558-19.504-40.316-0.982-63.026c18.064-22.186,58.314-33.051,92.87-19.634c34.622,13.482,60.408,35.669,61.979,74.349
			c1.413,35.568-0.67,53.068-28.801,72.81C2569.03,184.643,2571.113,202.143,2569.7,237.711z M1504.079,166.439
			c63.681,9.49,180.701,107.661,247.851,105.305c113.68-3.927,184.662-69.427,278.176-106.843
			c-93.514-37.416-164.496-102.916-278.176-106.843c-67.149-2.356-184.17,95.816-247.851,105.305
			c-4.237,0.632-8.427,1.142-12.57,1.537C1495.652,165.296,1499.842,165.807,1504.079,166.439z M2303.327,187.12
			c19.273,0.562,43.578-10.664,71.038-22.219c-27.46-11.554-51.765-22.78-71.038-22.219c-22.813,0.694-44.58,11.262-68.464,22.219
			C2258.748,175.857,2280.514,186.426,2303.327,187.12z"/>
		<path d="M2125.094,209.045c86.426,16.322,136.883-36.747,146.371-44.143c-9.489-7.397-59.945-60.465-146.371-44.143
			c-20.114,3.831-50.394,24.579-82.261,44.143C2074.701,184.466,2104.981,205.214,2125.094,209.045z M2122.215,220.629
			c-29.192-4.36-74.379-35.264-115.362-55.728c40.983-20.464,86.169-51.368,115.362-55.728
			c87.349-12.991,146.573,47.81,150.645,55.728C2268.787,172.819,2209.563,233.62,2122.215,220.629z"/>
		<path d="M1704.462,200.34c26.024,21.021,69.079-8.085,123.09-35.439c-54.011-27.354-97.066-56.46-123.09-35.439
			C1693.534,138.356,1693.534,191.447,1704.462,200.34z M1681.293,230.773c-26.703-16.034-28.666-28.142-27.553-55.827
			c0.136-3.542,0.562-6.886,1.252-10.045c-0.69-3.159-1.116-6.504-1.252-10.045c-1.113-27.684,0.851-39.792,27.553-55.827
			c47.016-28.199,116.373,33.426,193.27,65.872C1797.666,197.347,1728.308,258.973,1681.293,230.773z"/>
	</g>
	<g>
		<path d="M39.153,164.901C11.022,145.16,8.939,127.66,10.352,92.092c1.571-38.68,27.357-60.867,61.979-74.349
			c34.556-13.417,74.807-2.552,92.87,19.634c18.522,22.711,17.082,46.468-0.982,63.026c-12.239,11.126-26.375,0-25.852-10.34
			c0.72-14.268,29.975-10.865,8.246-34.098c-14.66-15.708-44.897-13.94-60.866,4.123c-16.035,18.064-24.739,50.657-3.142,68.196
			c62.503,50.591,138.88-27.423,198.241-26.899c59.427,0.524,91.234,61.456,167.284,58.903
			c138.095-4.712,227.169-128.081,386.207-129.063c75.396-0.523,189.013,104.913,245.756,115.646
			c133.71,25.263,207.011-66.102,210.611-64.074c3.052,1.776-58.818,72.566-157.929,82.103
			c99.111,9.538,160.981,80.328,157.929,82.103c-3.6,2.029-76.901-89.336-210.611-64.074
			c-56.743,10.734-170.361,116.17-245.756,115.646c-159.038-0.982-248.112-124.351-386.207-129.063
			c-76.05-2.553-107.858,58.379-167.284,58.903c-59.361,0.524-135.739-77.49-198.241-26.899
			c-21.598,17.54-12.893,50.133,3.142,68.196c15.969,18.064,46.206,19.831,60.866,4.123c21.729-23.234-7.527-19.83-8.246-34.098
			c-0.524-10.34,13.613-21.467,25.852-10.34c18.064,16.558,19.503,40.316,0.982,63.026c-18.064,22.186-58.314,33.051-92.87,19.634
			c-34.622-13.482-60.408-35.669-61.979-74.349C8.939,202.143,11.022,184.643,39.153,164.901z M1088.543,164.901
			c-4.142-0.395-8.333-0.905-12.57-1.537c-63.681-9.49-180.701-107.661-247.851-105.305
			c-113.68,3.927-184.662,69.427-278.176,106.843c93.514,37.416,164.496,102.916,278.176,106.843
			c67.149,2.356,184.17-95.816,247.851-105.305C1080.21,165.807,1084.4,165.296,1088.543,164.901z M345.189,164.901
			c-23.885-10.956-45.651-21.525-68.465-22.219c-19.273-0.562-43.578,10.664-71.038,22.219c27.46,11.554,51.765,22.78,71.038,22.219
			C299.538,186.426,321.304,175.857,345.189,164.901z"/>
		<path d="M537.219,164.901c-31.868-19.565-62.148-40.312-82.261-44.143c-86.426-16.322-136.883,36.747-146.371,44.143
			c9.489,7.397,59.945,60.465,146.371,44.143C475.071,205.214,505.351,184.466,537.219,164.901z M307.193,164.901
			c4.072-7.918,63.296-68.719,150.645-55.728c29.192,4.36,74.379,35.264,115.362,55.728
			c-40.983,20.464-86.169,51.368-115.362,55.728C370.488,233.62,311.265,172.819,307.193,164.901z"/>
		<path d="M875.59,129.462c-26.024-21.021-69.079,8.085-123.09,35.439c54.011,27.354,97.066,56.46,123.09,35.439
			C886.518,191.447,886.518,138.356,875.59,129.462z M705.489,164.901c76.897-32.446,146.254-94.072,193.27-65.872
			c26.703,16.034,28.666,28.142,27.553,55.827c-0.136,3.542-0.561,6.886-1.252,10.045c0.69,3.159,1.116,6.504,1.252,10.045
			c1.113,27.684-0.851,39.792-27.553,55.827C851.743,258.973,782.386,197.347,705.489,164.901z"/>
	</g>
</g>
</svg>
